<svg width="128" height="128" viewBox="0 0 128 128" fill="none" xmlns="http://www.w3.org/2000/svg">
<g clip-path="url(#clip0_1430_1920)">
<path d="M66.471 5.77474C66.1057 3.8164 65.6013 1.8866 64.9615 0C81.7448 0.247159 96.9634 6.95394 108.244 17.7449L76.736 49.2507C73.5183 45.7362 69.7485 40.0334 68.2052 31.6464C67.4346 27.4574 67.3832 22.609 67.3335 17.9213C67.3283 17.4305 67.326 16.9356 67.3234 16.456C67.3098 13.525 67.2258 9.83727 66.471 5.77474ZM118.714 63.8891C116.073 63.5683 113.822 63.5577 111.475 63.5467C110.991 63.5444 110.491 63.5418 109.993 63.5366C105.181 63.4855 100.204 63.4326 95.7694 62.6169C93.9215 62.2768 91.0662 61.6612 87.6252 60.247C83.5312 58.5642 79.8761 56.259 76.7377 53.384L66.0925 64.0283L110.282 108.217C120.821 97.1871 127.459 82.3977 127.975 66.0636C125.901 65.3346 123.776 64.7605 121.617 64.3462C120.139 64.0635 119.003 63.9243 118.714 63.8891ZM96.2984 59.7414C100.487 60.5118 105.336 60.5632 110.024 60.6131C110.515 60.618 111.009 60.6203 111.489 60.6229C114.347 60.6362 118.058 60.7202 122.169 61.4753C124.146 61.8395 126.094 62.3412 128 62.9767C127.738 46.2453 121.056 31.0713 110.309 19.8128L78.8086 51.314C82.3364 54.5118 88.0058 58.216 96.2984 59.7414ZM31.6825 68.1616C27.4932 67.3909 22.645 67.3395 17.957 67.2896C17.4661 67.2847 16.9715 67.2824 16.4919 67.28C14.1257 67.2685 10.3308 67.1732 5.81146 66.4274C3.85386 66.1038 1.91416 65.68 0 65.1575C0.295958 81.8642 6.99241 97.009 17.7422 108.244L49.2899 76.6969C45.7713 73.4743 40.0675 69.7037 31.6825 68.1616ZM9.26681 64.013C11.907 64.3338 14.1581 64.3442 16.5061 64.3554C16.9894 64.3577 17.4895 64.3601 17.9882 64.3652C22.7997 64.4164 27.7765 64.4692 32.2115 65.2852C34.0594 65.625 36.9145 66.2406 40.3557 67.6548C44.5005 69.3584 48.1961 71.7003 51.3596 74.6261L61.9586 64.0274L17.7159 19.786C7.13793 30.8547 0.490857 45.7126 0.0170356 62.1169C1.95679 62.6484 4.07671 63.1436 6.36498 63.5565C7.42552 63.7476 8.18173 63.8819 9.26681 64.013ZM74.6663 51.3201C71.7405 48.1547 69.3989 44.458 67.6962 40.3114C66.2848 36.8755 65.6695 34.0219 65.3302 32.1745C64.514 27.7387 64.4611 22.7617 64.4103 17.9514C64.4048 17.4527 64.4025 16.9529 64.4002 16.4693C64.3889 14.1215 64.3782 11.8706 64.0577 9.23006C63.9059 7.98127 63.7372 7.05933 63.6004 6.32854C63.201 4.19576 62.6694 2.08988 62.0086 0.023099C45.646 0.522903 30.8284 7.16356 19.7833 17.7186L64.026 61.9609L74.6663 51.3201ZM53.4226 76.6984C56.2984 79.8375 58.6037 83.4944 60.2854 87.5895C61.6967 91.0255 62.3115 93.8791 62.6513 95.7264C63.4673 100.162 63.5201 105.139 63.5712 109.95C63.5764 110.448 63.579 110.948 63.581 111.431C63.5923 113.779 63.603 116.03 63.9238 118.671C64.0453 119.674 64.1634 120.349 64.3811 121.572C64.8171 124.027 65.3086 126.182 65.772 127.985C82.2209 127.538 97.1207 120.885 108.215 110.283L64.0263 66.0951L53.4226 76.6984ZM60.6573 111.445C60.6552 110.966 60.6529 110.471 60.6477 109.981C60.5981 105.292 60.5464 100.444 59.7757 96.2554C58.2503 87.9614 54.5461 82.2926 51.3523 78.7686L19.8107 110.311C31.0453 121.034 46.1761 127.71 62.8638 128C62.3007 126.07 61.8487 124.109 61.5099 122.127C60.7658 117.769 60.6694 114.022 60.657 111.446L60.6573 111.445Z" fill="url(#paint0_linear_1430_1920)"/>
</g>
<defs>
<linearGradient id="paint0_linear_1430_1920" x1="11.5123" y1="10.8684" x2="133.331" y2="133.846" gradientUnits="userSpaceOnUse">
<stop stop-color="#F95700"/>
<stop offset="1" stop-color="#FF7931"/>
</linearGradient>
<clipPath id="clip0_1430_1920">
<rect width="128" height="128" fill="white"/>
</clipPath>
</defs>
</svg>
