<svg width="2485" height="2485" viewBox="0 0 2485 2485" fill="none" xmlns="http://www.w3.org/2000/svg">
<path d="M1290.47 112.111C1283.38 74.0919 1273.59 36.6265 1261.17 0C1587 4.79836 1882.45 135.004 2101.45 344.501L1489.76 956.157C1427.29 887.926 1354.1 777.211 1324.14 614.386C1309.18 533.061 1308.18 438.932 1307.22 347.926C1307.12 338.396 1307.07 328.788 1307.02 319.478C1306.76 262.576 1305.13 190.981 1290.47 112.111ZM2304.72 1240.35C2253.45 1234.12 2209.75 1233.91 2164.18 1233.7C2154.79 1233.65 2145.09 1233.6 2135.41 1233.5C2041.99 1232.51 1945.38 1231.48 1859.27 1215.65C1823.4 1209.05 1767.96 1197.09 1701.16 1169.64C1621.68 1136.97 1550.72 1092.21 1489.79 1036.4L1283.12 1243.05L2141.03 2100.93C2345.63 1886.8 2474.49 1599.67 2484.52 1282.56C2444.26 1268.41 2403 1257.26 2361.08 1249.22C2332.38 1243.73 2310.34 1241.03 2304.72 1240.35ZM1869.54 1159.82C1950.86 1174.78 2045 1175.78 2136.01 1176.75C2145.54 1176.84 2155.14 1176.89 2164.45 1176.94C2219.94 1177.2 2291.99 1178.83 2371.81 1193.49C2410.17 1200.56 2447.99 1210.3 2485 1222.63C2479.91 897.809 2350.19 603.22 2141.54 384.648L1529.99 996.214C1598.48 1058.3 1708.55 1130.21 1869.54 1159.82ZM615.087 1323.29C533.755 1308.33 439.631 1307.33 348.618 1306.36C339.089 1306.27 329.486 1306.22 320.176 1306.18C274.238 1305.95 200.563 1304.11 112.824 1289.63C74.8191 1283.34 37.1615 1275.11 0 1264.97C5.74575 1589.32 135.751 1883.34 344.448 2101.46L956.917 1489C888.607 1426.44 777.874 1353.23 615.087 1323.29ZM179.906 1242.75C231.164 1248.98 274.865 1249.18 320.45 1249.4C329.834 1249.45 339.543 1249.49 349.224 1249.59C442.636 1250.58 539.254 1251.61 625.356 1267.45C661.232 1274.05 716.66 1286 783.468 1313.46C863.936 1346.53 935.683 1391.99 997.098 1448.8L1202.87 1243.03L343.938 384.126C138.576 599.016 9.52954 887.466 0.330731 1205.94C37.9892 1216.26 79.1456 1225.87 123.57 1233.89C144.159 1237.6 158.841 1240.21 179.906 1242.75ZM1449.58 996.332C1392.78 934.878 1347.31 863.11 1314.26 782.609C1286.86 715.903 1274.91 660.503 1268.33 624.639C1252.48 538.52 1251.45 441.897 1250.47 348.509C1250.36 338.828 1250.31 329.125 1250.27 319.735C1250.05 274.157 1249.84 230.456 1243.62 179.193C1240.67 154.949 1237.4 137.05 1234.74 122.863C1226.99 81.4567 1216.67 40.5731 1203.84 0.448445C886.174 10.1517 598.505 139.074 384.074 343.991L1243 1202.91L1449.58 996.332ZM1037.15 1489.03C1092.98 1549.97 1137.74 1620.96 1170.38 1700.47C1197.78 1767.17 1209.72 1822.57 1216.32 1858.44C1232.16 1944.56 1233.18 2041.18 1234.18 2134.57C1234.28 2144.25 1234.33 2153.95 1234.37 2163.34C1234.58 2208.92 1234.79 2252.62 1241.02 2303.88C1243.38 2323.36 1245.67 2336.46 1249.9 2360.21C1258.36 2407.86 1267.9 2449.7 1276.9 2484.71C1596.24 2476.03 1885.51 2346.87 2100.89 2141.05L1243.01 1283.17L1037.15 1489.03ZM1177.6 2163.61C1177.56 2154.3 1177.52 2144.69 1177.42 2135.17C1176.45 2044.15 1175.45 1950.03 1160.49 1868.71C1130.88 1707.69 1058.96 1597.63 996.958 1529.22L384.606 2141.58C602.715 2349.75 896.466 2479.37 1220.44 2485C1209.51 2447.53 1200.73 2409.46 1194.16 2370.98C1179.71 2286.38 1177.84 2213.64 1177.6 2163.62L1177.6 2163.61Z" fill="url(#paint0_linear_918_1948)"/>
<defs>
<linearGradient id="paint0_linear_918_1948" x1="223.5" y1="211" x2="2588.5" y2="2598.5" gradientUnits="userSpaceOnUse">
<stop stop-color="#F95700"/>
<stop offset="1" stop-color="#FF7931"/>
</linearGradient>
</defs>
</svg>
